# xmcd
#
# Track frame offsets:
#	150
#	20110
#	41538
#	65582
#	90590
#	115065
#	136418
#	159067
#	178200
#	198616
#	219426
#	239739
#	261165
#	284401
#	310695
#
# Disc length: 4458 seconds
#
# Revision: 1
# Processed by: cddbd v1.5PL3 Copyright (c) Steve Scherf et al.
# Submitted via: CDex 1.50Beta5
#
DISCID=dc11680f
DTITLE=Various Artist - Kiss〜Endless Love Story〜
DYEAR=2003
DGENRE=
TTITLE0=小田　和正/伝えたいことがあるんだ
TTITLE1=My Liittle Lover/Destiny
TTITLE2=今井　美樹/瞳がほほえむから
TTITLE3=角松　敏生/You're My Only Shinin' Star
TTITLE4=シャ乱Ｑ/シングルベット
TTITLE5=山根　康広/Get Along Together 〜愛を贈りたいから〜
TTITLE6=岡村　孝子/Believe
TTITLE7=Sing Like Talking/Spirit Of Love
TTITLE8=安全地帯/悲しみにさよなら
TTITLE9=松田　聖子/Sweet Memories
TTITLE10=辛島　美登里/あなたは知らない
TTITLE11=中西　保志/最後の雨
TTITLE12=杏里/ドルフィン リング
TTITLE13=永井　真理子/Zutto
TTITLE14=S.E.N.S./Requiem
EXTD=
EXTT0=
EXTT1=
EXTT2=
EXTT3=
EXTT4=
EXTT5=
EXTT6=
EXTT7=
EXTT8=
EXTT9=
EXTT10=
EXTT11=
EXTT12=
EXTT13=
EXTT14=
PLAYORDER=
